<svg width="423" height="350" viewBox="0 0 423 350" fill="none" xmlns="http://www.w3.org/2000/svg">
<style>
#translate_1 , #translate_2 , #translate_3 , #man , #rotate {
    transform-origin: center;
    transform-box: fill-box;
}
#man{
    animation: translateY 4s linear infinite reverse;
}
#translate_1 {
    animation: translate 4s linear infinite reverse;
}
#translate_2 , #translate_3 , #rotate  {
   animation: rotation 4s linear infinite reverse;
}
@keyframes rotation {
  0% {
    transform: rotate(0deg);
  }

  50% {
    transform: rotate(10deg);
  }

  100% {
    transform: rotate(0deg);
  }
}

@keyframes translate {
  0%,
  100% {
    transform: translateY(2px);
  }

  50% {
    transform: translateY(-2px);
  }
}
@keyframes translateY {
    0%,
    100% {
        transform: translateY(0px) translateX(5px);
    }

    50% {
        transform: translateY(-4px) translateX(-5px);
    }
}
</style>
<g id="undraw_growth_curve_re_t5s7">
<path id="Path 438" d="M257.565 3.872C258.649 3.87332 259.688 4.30445 260.454 5.07081C261.221 5.83717 261.652 6.8762 261.653 7.96V180.838C261.652 181.922 261.221 182.961 260.454 183.727C259.688 184.494 258.649 184.925 257.565 184.926H4.08798C3.00418 184.925 1.96518 184.494 1.19882 183.727C0.43246 182.961 0.00129264 181.922 -3.05176e-05 180.838V7.96C0.00129264 6.8762 0.43246 5.83717 1.19882 5.07081C1.96518 4.30445 3.00418 3.87332 4.08798 3.872H257.565Z" fill="#E6E6E6"/>
<path id="Path 439" d="M251.725 9.712C252.809 9.71332 253.848 10.1444 254.614 10.9108C255.381 11.6772 255.812 12.7162 255.813 13.8V175C255.812 176.084 255.381 177.123 254.614 177.889C253.848 178.656 252.809 179.087 251.725 179.088H9.92502C8.84122 179.087 7.80216 178.656 7.0358 177.889C6.26944 177.123 5.83833 176.084 5.83701 175V13.8C5.83833 12.7162 6.26944 11.6772 7.0358 10.9108C7.80216 10.1444 8.84122 9.71332 9.92502 9.712H251.725Z" fill="white"/>
<path id="Path 440" opacity="0.1" d="M28.629 44.962C34.189 42.791 40.185 48.236 41.487 54.062C42.789 59.888 41.123 65.912 40.756 71.869C40.389 77.826 41.951 84.745 47.266 87.461C53.378 90.584 60.548 86.524 67.384 85.905C70.7961 85.6346 74.221 86.2338 77.3386 87.6465C80.4562 89.0592 83.1648 91.2393 85.211 93.983C90.849 101.718 90.562 112.948 97.234 119.811C103.034 125.774 112.477 126.55 120.586 124.711C128.695 122.872 136.149 118.861 144.122 116.5C152.095 114.139 161.322 113.645 168.158 118.385C175.291 123.333 178.465 133.032 186.297 136.785C191.834 139.435 198.388 138.424 204.313 136.819C210.238 135.214 216.213 133.05 222.33 133.565C228.447 134.08 234.824 138.301 235.309 144.42L25.367 143.827C24.413 116.116 23.4593 88.4057 22.506 60.695C22.3 54.672 23.016 47.153 28.629 44.962Z" fill="#EBA40C"/>
<path id="rotate" d="M236.313 143.728C236.623 143.728 236.92 143.605 237.139 143.386C237.358 143.167 237.481 142.87 237.481 142.56C237.481 142.25 237.358 141.953 237.139 141.734C236.92 141.515 236.623 141.392 236.313 141.392C182.338 141.392 130.863 130.585 91.37 110.961C54.337 92.561 30.738 67.606 26.625 42.499C26.6004 42.3476 26.5463 42.2025 26.4657 42.072C26.385 41.9415 26.2795 41.8282 26.1551 41.7385C26.0306 41.6488 25.8897 41.5845 25.7405 41.5492C25.5912 41.514 25.4364 41.5085 25.285 41.533C25.1335 41.5576 24.9884 41.6117 24.858 41.6923C24.7275 41.773 24.6142 41.8785 24.5245 42.003C24.4348 42.1274 24.3704 42.2683 24.3352 42.4175C24.2999 42.5668 24.2944 42.7216 24.3189 42.873V42.873C26.4559 55.915 33.392 68.709 44.934 80.898C56.317 92.92 71.591 103.738 90.334 113.049C130.14 132.833 181.985 143.728 236.313 143.728Z" fill="#EBA40C"/>
<g id="man">
<path id="Path 441" d="M342.368 193.408C342.734 192.445 342.884 191.413 342.807 190.386C342.731 189.358 342.431 188.36 341.927 187.461C341.423 186.562 340.728 185.785 339.892 185.184C339.055 184.582 338.097 184.172 337.084 183.981L333.396 159.209L323.707 167.898L328.695 190.09C328.487 191.812 328.919 193.551 329.907 194.976C330.896 196.402 332.373 197.415 334.058 197.824C335.744 198.234 337.521 198.01 339.053 197.197C340.586 196.383 341.766 195.036 342.371 193.41L342.368 193.408Z" fill="#FFB9B9"/>
<path id="Path 442" d="M409.884 197.165C409.255 196.349 408.812 195.405 408.587 194.4C408.362 193.395 408.36 192.352 408.581 191.346C408.803 190.34 409.242 189.394 409.868 188.576C410.495 187.758 411.292 187.087 412.206 186.611L408.547 161.835L420.347 167.335L422.013 190.02C422.711 191.608 422.802 193.396 422.27 195.047C421.737 196.697 420.618 198.095 419.124 198.976C417.629 199.857 415.864 200.159 414.162 199.825C412.46 199.491 410.94 198.545 409.889 197.165H409.884Z" fill="#FFB9B9"/>
<path id="Path 443" d="M358.039 339.392H347.096L341.89 297.181H358.041L358.039 339.392Z" fill="#FFB9B9"/>
<path id="Path 444" d="M360.831 335.824H339.278C335.636 335.824 332.143 337.271 329.567 339.847C326.992 342.422 325.545 345.915 325.544 349.557V350.004H360.83L360.831 335.824Z" fill="#EBA40C"/>
<path id="Path 445" d="M416.444 339.392H405.501L400.295 297.181H416.446L416.444 339.392Z" fill="#FFB9B9"/>
<path id="Path 446" d="M419.235 335.824H397.682C394.04 335.824 390.547 337.271 387.971 339.847C385.396 342.422 383.949 345.915 383.948 349.557V350.004H419.234L419.235 335.824Z" fill="#EBA40C"/>
<path id="Ellipse 8" d="M364.944 51.738C375.862 51.738 384.713 42.8871 384.713 31.969C384.713 21.0509 375.862 12.2 364.944 12.2C354.026 12.2 345.175 21.0509 345.175 31.969C345.175 42.8871 354.026 51.738 364.944 51.738Z" fill="#FFB9B9"/>
<path id="Path 447" d="M411.739 174.017C411.739 174.017 411.448 262.479 412.86 263.891C414.272 265.303 419.284 318.207 419.284 318.207H401.763C400.595 318.207 370.789 202.963 370.789 202.963C370.789 202.963 358.081 265.093 360.199 268.623C362.317 272.153 360.666 318.43 359.493 322.281C359.493 322.281 344.77 326.993 343.358 323.462C341.946 319.931 339.858 272.062 339.858 272.062L335.77 192.632L335.681 171.893L411.739 174.017Z" fill="#3F0366"/>
<path id="Path 448" d="M330.669 72.679H322.803C322.225 72.6788 321.664 72.8753 321.213 73.2362C320.761 73.5972 320.446 74.1011 320.319 74.665C319.105 80.04 315.977 95.276 316.549 107.275C317.255 122.102 318.667 145.4 318.667 147.519C318.667 149.638 325.727 182.119 325.727 182.119C325.727 182.119 330.581 174.141 335.92 175.659L334.905 146.818L333.493 134.818L335.611 113.637L330.669 72.679Z" fill="#EBA40C"/>
<path id="Path 449" d="M380.674 59.77C380.674 59.77 405.738 68.107 408.562 75.17C411.386 82.233 397.675 133.414 397.675 133.414C397.675 133.414 402.931 156.776 409.975 178.956C413.18 189.05 382.594 180.408 368.475 175.466C359.725 172.431 343.542 177.092 334.432 175.426C334.432 175.426 333.02 156.363 334.432 152.833C335.844 149.303 339.374 151.421 337.256 146.479C335.138 141.537 335.844 140.831 336.55 138.713C337.256 136.595 335.138 133.771 335.138 130.947C335.138 128.123 335.844 121.769 335.844 121.769C335.844 121.769 316.781 77.289 321.017 73.053C325.253 68.817 346.817 60.653 346.817 60.653C346.817 60.653 346.279 60.99 380.674 59.77Z" fill="#EBA40C"/>
<path id="Path 450" d="M403.973 72.679L406.48 73.933C407.456 74.4211 408.306 75.1284 408.963 75.9996C409.62 76.8709 410.067 77.8824 410.268 78.955L420.214 131.985L422.332 182.113C422.332 182.113 410.332 178.583 406.799 182.113C406.799 182.113 410.329 171.523 408.211 167.992C406.093 164.461 406.093 159.52 406.093 159.52C406.093 159.52 407.505 159.52 403.975 155.99C400.445 152.46 399.739 151.048 400.445 150.342C401.151 149.636 401.857 143.282 401.857 142.576C401.857 141.87 394.797 94.566 394.797 94.566L403.973 72.679Z" fill="#EBA40C"/>
<path id="Path 453" d="M383.575 38.628C384.479 36.4102 384.624 33.9559 383.988 31.647C382.373 35.93 379.165 34.623 377.53 32.614C375.48 30.095 376.07 24.278 372.83 24.014C369.58 23.9 366.33 24.2236 363.166 24.976L364.751 22.261L357.829 22.691L359.89 19.3C356.753 20.4023 353.884 22.153 351.469 24.4383C349.055 26.7235 347.148 29.4919 345.875 32.563C344.678 30.6258 343.933 28.4442 343.694 26.1799C343.455 23.9155 343.729 21.6264 344.494 19.4821C345.26 17.3378 346.499 15.3933 348.118 13.7926C349.737 12.1918 351.696 10.976 353.849 10.235L351.119 6.653L369.646 4.825C369.692 3.93196 369.52 3.04112 369.144 2.22963C368.769 1.41814 368.201 0.710492 367.49 0.167998C368.718 -0.0435223 369.977 -0.00509568 371.19 0.280989C372.403 0.567075 373.546 1.09493 374.551 1.83299C376.549 3.31785 378.337 5.06717 379.864 7.033C382.433 9.79298 384.622 12.8832 386.373 16.222C388.012 19.8519 388.618 23.8637 388.124 27.8159C387.63 31.7681 386.055 35.5073 383.573 38.622L383.575 38.628ZM383.351 29.928H383.332H383.351Z" fill="#3F3D56"/>
</g>
<g id="translate_2">
<path id="Ellipse 9" opacity="0.15" d="M220.181 350C242.825 350 261.181 331.644 261.181 309C261.181 286.356 242.825 268 220.181 268C197.537 268 179.181 286.356 179.181 309C179.181 331.644 197.537 350 220.181 350Z" fill="#EBA40C"/>
<path id="Path 982" d="M216.388 312.329V314.473H211.156C210.612 314.482 210.069 314.444 209.532 314.361C209.165 314.306 208.813 314.174 208.5 313.973C208.156 314.174 207.775 314.305 207.38 314.357C206.797 314.441 206.209 314.48 205.62 314.473H204.208V314.697C204.246 315.463 204.134 316.229 203.88 316.953C203.765 317.207 203.596 317.433 203.384 317.616C203.173 317.798 202.924 317.932 202.656 318.009C201.759 318.247 200.831 318.348 199.904 318.309C199.034 318.347 198.164 318.241 197.328 317.997C197.066 317.91 196.826 317.767 196.625 317.577C196.425 317.386 196.269 317.154 196.168 316.897C195.927 316.135 195.823 315.336 195.86 314.537C195.836 313.368 195.992 312.202 196.324 311.081L198.224 311.381C197.949 312.281 197.795 313.213 197.764 314.153C197.752 314.831 197.811 315.508 197.94 316.173H200.452C200.939 316.2 201.426 316.141 201.892 315.997C202.025 315.944 202.137 315.85 202.212 315.728C202.287 315.606 202.321 315.463 202.308 315.321V308.393H204.208V312.329H206.336C206.655 312.352 206.975 312.291 207.264 312.153C207.367 312.077 207.448 311.974 207.499 311.856C207.55 311.738 207.568 311.609 207.552 311.481V308.393H209.452V311.481C209.436 311.609 209.454 311.738 209.505 311.856C209.556 311.974 209.637 312.077 209.74 312.153C210.029 312.291 210.349 312.352 210.668 312.329H212.628C212.761 311.682 212.821 311.022 212.808 310.361C212.779 309.315 212.634 308.275 212.376 307.261L214.26 306.973C214.413 307.487 214.522 308.013 214.588 308.545C214.666 309.115 214.706 309.69 214.708 310.265C214.723 310.959 214.653 311.652 214.5 312.329H216.388ZM221.828 312.329V314.473H215.748V312.329H218.228V306.953H220.128V312.329H221.828ZM217.828 317.993C217.655 317.98 217.49 317.913 217.356 317.801C217.181 317.674 217.027 317.52 216.9 317.345C216.788 317.211 216.721 317.046 216.708 316.873C216.743 316.592 216.886 316.337 217.108 316.161C217.292 315.944 217.547 315.799 217.828 315.753C218.107 315.799 218.36 315.944 218.54 316.161C218.758 316.339 218.899 316.594 218.932 316.873C218.916 317.043 218.849 317.205 218.74 317.337C218.615 317.516 218.461 317.673 218.284 317.801C218.155 317.91 217.996 317.977 217.828 317.993ZM220.5 317.993C220.327 317.98 220.162 317.913 220.028 317.801C219.853 317.674 219.699 317.52 219.572 317.345C219.46 317.211 219.393 317.046 219.38 316.873C219.415 316.592 219.558 316.337 219.78 316.161C219.964 315.944 220.219 315.799 220.5 315.753C220.777 315.8 221.029 315.944 221.208 316.161C221.429 316.337 221.572 316.593 221.608 316.873C221.589 317.044 221.52 317.206 221.408 317.337C221.283 317.516 221.129 317.673 220.952 317.801C220.824 317.909 220.667 317.976 220.5 317.993V317.993ZM235.62 306.973C235.773 307.488 235.883 308.015 235.948 308.549C236.026 309.119 236.066 309.694 236.068 310.269C236.102 311.131 235.983 311.992 235.716 312.813C235.525 313.372 235.123 313.834 234.596 314.101C233.939 314.378 233.228 314.505 232.516 314.473C231.972 314.482 231.429 314.444 230.892 314.361C230.525 314.306 230.173 314.174 229.86 313.973C229.516 314.174 229.135 314.305 228.74 314.357C228.157 314.441 227.569 314.48 226.98 314.473H221.188V312.329H223.668V308.393H225.568V312.329H227.7C228.019 312.352 228.339 312.291 228.628 312.153C228.731 312.077 228.812 311.974 228.863 311.856C228.914 311.738 228.932 311.609 228.916 311.481V308.393H230.816V311.481C230.8 311.609 230.819 311.739 230.871 311.857C230.922 311.975 231.004 312.077 231.108 312.153C231.397 312.291 231.717 312.352 232.036 312.329H233.988C234.119 311.682 234.178 311.022 234.164 310.361C234.135 309.315 233.99 308.275 233.732 307.261L235.62 306.973ZM238.676 306.957H240.576V312.333H242.276V314.473H238.676V306.957ZM241.492 303.309V304.253L237.78 305.245V304.317L238.42 304.141C238.314 303.821 238.265 303.486 238.276 303.149C238.244 302.825 238.292 302.497 238.416 302.196C238.54 301.895 238.736 301.628 238.988 301.421C239.61 301.036 240.329 300.836 241.06 300.845V301.945C240.537 301.972 240.022 302.091 239.54 302.297V303.353C239.532 303.451 239.555 303.548 239.604 303.633C239.631 303.665 239.666 303.689 239.705 303.705C239.744 303.72 239.786 303.726 239.828 303.721C239.947 303.708 240.064 303.687 240.18 303.657L241.492 303.309ZM241.636 312.333H244.116V306.953H246.016V314.473H241.636V312.333ZM243.748 305.081C243.575 305.068 243.41 305.001 243.276 304.889C243.101 304.762 242.947 304.608 242.82 304.433C242.708 304.299 242.641 304.134 242.628 303.961C242.663 303.68 242.806 303.425 243.028 303.249C243.212 303.032 243.467 302.887 243.748 302.841C244.027 302.887 244.28 303.032 244.46 303.249C244.678 303.427 244.819 303.682 244.852 303.961C244.836 304.131 244.769 304.293 244.66 304.425C244.535 304.604 244.381 304.761 244.204 304.889C244.075 304.998 243.916 305.065 243.748 305.081ZM246.42 305.081C246.247 305.068 246.082 305.001 245.948 304.889C245.773 304.762 245.619 304.608 245.492 304.433C245.38 304.299 245.313 304.134 245.3 303.961C245.335 303.68 245.478 303.425 245.7 303.249C245.884 303.032 246.139 302.887 246.42 302.841C246.699 302.887 246.952 303.032 247.132 303.249C247.35 303.427 247.491 303.682 247.524 303.961C247.508 304.131 247.441 304.293 247.332 304.425C247.207 304.604 247.053 304.761 246.876 304.889C246.747 304.998 246.588 305.065 246.42 305.081Z" fill="#3F0366"/>
</g>
<g id="translate_1">
<path id="Ellipse 9_2" opacity="0.15" d="M131.181 316C153.825 316 172.181 297.644 172.181 275C172.181 252.356 153.825 234 131.181 234C108.537 234 90.181 252.356 90.181 275C90.181 297.644 108.537 316 131.181 316Z" fill="#EBA40C"/>
<path id="Path 980" d="M117.125 280.473H115.477C115.503 281.417 115.271 282.351 114.805 283.173C114.29 283.916 113.566 284.49 112.725 284.821L111.993 283.113C112.353 282.965 112.683 282.753 112.969 282.489C113.201 282.251 113.364 281.956 113.441 281.633C113.542 281.179 113.586 280.714 113.573 280.249V272.949H115.473V278.325H117.121L117.125 280.473ZM116.501 278.329H118.981V272.953H120.881V280.473H116.497L116.501 278.329ZM117.637 283.785C117.464 283.772 117.299 283.705 117.165 283.593C116.99 283.466 116.836 283.312 116.709 283.137C116.597 283.003 116.53 282.838 116.517 282.665C116.552 282.384 116.695 282.129 116.917 281.953C117.101 281.736 117.356 281.591 117.637 281.545C117.916 281.591 118.169 281.736 118.349 281.953C118.567 282.131 118.708 282.386 118.741 282.665C118.725 282.835 118.658 282.997 118.549 283.129C118.424 283.308 118.27 283.464 118.093 283.593C117.964 283.702 117.805 283.769 117.637 283.785V283.785ZM120.309 283.785C120.136 283.772 119.971 283.705 119.837 283.593C119.662 283.466 119.508 283.312 119.381 283.137C119.269 283.003 119.202 282.838 119.189 282.665C119.224 282.384 119.367 282.129 119.589 281.953C119.773 281.736 120.028 281.591 120.309 281.545C120.588 281.591 120.841 281.736 121.021 281.953C121.239 282.131 121.38 282.386 121.413 282.665C121.397 282.835 121.33 282.997 121.221 283.129C121.096 283.308 120.942 283.464 120.765 283.593C120.636 283.702 120.477 283.769 120.309 283.785V283.785ZM132.533 280.473H130.293C129.997 281.319 129.582 282.119 129.061 282.849C128.535 283.603 127.911 284.284 127.205 284.873L125.957 283.433C126.446 283.03 126.888 282.573 127.277 282.073C127.665 281.582 127.99 281.044 128.245 280.473H126.261C125.667 280.504 125.076 280.374 124.549 280.097C124.107 279.813 123.783 279.378 123.637 278.873C123.42 278.12 123.323 277.337 123.349 276.553C123.315 275.779 123.438 275.007 123.709 274.281C123.932 273.755 124.351 273.336 124.877 273.113C125.59 272.849 126.349 272.729 127.109 272.761C127.762 272.754 128.415 272.797 129.061 272.889C129.618 272.978 130.165 273.123 130.693 273.321V278.329H132.533V280.473ZM128.085 278.329C128.277 278.348 128.469 278.292 128.621 278.173C128.74 278.015 128.794 277.818 128.773 277.621V274.901H126.193C125.964 274.877 125.733 274.931 125.537 275.053C125.469 275.133 125.418 275.226 125.387 275.326C125.357 275.427 125.348 275.533 125.361 275.637V278.325L128.085 278.329ZM145.845 278.329V280.473H131.893V278.329H134.373V270.393H136.273V275.449C136.629 274.6 137.282 273.909 138.109 273.505C139.071 273.013 140.141 272.769 141.221 272.793C141.819 272.771 142.416 272.847 142.989 273.017C143.181 273.076 143.36 273.173 143.515 273.302C143.669 273.431 143.797 273.59 143.889 273.769C144.088 274.239 144.178 274.747 144.153 275.257V278.329H145.845ZM142.245 278.329V275.113C141.638 274.971 141.015 274.911 140.393 274.937C139.362 274.871 138.34 275.168 137.505 275.777C137.146 276.101 136.855 276.494 136.649 276.932C136.444 277.371 136.328 277.845 136.309 278.329H142.245ZM145.205 278.329H147.685V272.953H149.585V280.473H145.205V278.329ZM147.317 271.081C147.144 271.068 146.979 271.001 146.845 270.889C146.67 270.762 146.516 270.608 146.389 270.433C146.277 270.299 146.21 270.134 146.197 269.961C146.232 269.68 146.375 269.425 146.597 269.249C146.781 269.032 147.036 268.887 147.317 268.841C147.596 268.887 147.849 269.032 148.029 269.249C148.247 269.427 148.388 269.682 148.421 269.961C148.405 270.131 148.338 270.293 148.229 270.425C148.104 270.604 147.95 270.76 147.773 270.889C147.644 270.998 147.485 271.065 147.317 271.081V271.081ZM149.989 271.081C149.816 271.068 149.651 271.001 149.517 270.889C149.342 270.762 149.188 270.608 149.061 270.433C148.949 270.299 148.882 270.134 148.869 269.961C148.904 269.68 149.047 269.425 149.269 269.249C149.453 269.032 149.708 268.887 149.989 268.841C150.268 268.887 150.521 269.032 150.701 269.249C150.919 269.427 151.06 269.682 151.093 269.961C151.077 270.131 151.01 270.293 150.901 270.425C150.776 270.604 150.622 270.76 150.445 270.889C150.317 270.997 150.16 271.064 149.993 271.081H149.989Z" fill="#3F0366"/>
</g>
<g id="translate_3">
<path id="Ellipse 9_3" opacity="0.15" d="M41.181 350C63.8247 350 82.181 331.644 82.181 309C82.181 286.356 63.8247 268 41.181 268C18.5373 268 0.181 286.356 0.181 309C0.181 331.644 18.5373 350 41.181 350Z" fill="#EBA40C"/>
<path id="Path 981" d="M28.347 312.329V314.473H26.667V314.697C26.7048 315.463 26.5934 316.229 26.339 316.953C26.2237 317.207 26.0546 317.433 25.8432 317.616C25.6319 317.798 25.3834 317.932 25.115 318.009C24.218 318.247 23.2902 318.348 22.363 318.309C21.503 318.347 20.6429 318.238 19.819 317.989C19.5563 317.899 19.3156 317.755 19.1128 317.565C18.9101 317.376 18.7499 317.145 18.643 316.889C18.3882 316.132 18.2769 315.335 18.315 314.537C18.3159 313.852 18.3613 313.168 18.451 312.489C18.5305 311.851 18.6561 311.22 18.827 310.601L20.619 310.901C20.3679 311.966 20.2338 313.055 20.219 314.149C20.2049 314.82 20.2639 315.491 20.395 316.149H22.907C23.3936 316.176 23.8813 316.117 24.347 315.973C24.4778 315.92 24.5884 315.827 24.6625 315.707C24.7366 315.586 24.7704 315.446 24.759 315.305V304.329H26.659V312.329H28.347ZM33.787 312.329V314.473H27.707V312.329H30.187V306.953H32.087V312.329H33.787ZM29.787 317.993C29.6135 317.98 29.4485 317.913 29.315 317.801C29.1399 317.674 28.9861 317.52 28.859 317.345C28.7474 317.211 28.6803 317.046 28.667 316.873C28.7018 316.592 28.8454 316.337 29.067 316.161C29.251 315.944 29.5062 315.799 29.787 315.753C30.0658 315.799 30.3187 315.944 30.499 316.161C30.717 316.339 30.8575 316.594 30.891 316.873C30.8746 317.043 30.8078 317.205 30.699 317.337C30.5736 317.516 30.4195 317.672 30.243 317.801C30.1143 317.91 29.9551 317.977 29.787 317.993ZM32.459 317.993C32.2855 317.98 32.1205 317.913 31.987 317.801C31.8119 317.674 31.6581 317.52 31.531 317.345C31.4194 317.211 31.3523 317.046 31.339 316.873C31.3738 316.592 31.5174 316.337 31.739 316.161C31.923 315.944 32.1782 315.799 32.459 315.753C32.7378 315.799 32.9907 315.944 33.171 316.161C33.3875 316.339 33.5265 316.594 33.559 316.873C33.5426 317.043 33.4758 317.205 33.367 317.337C33.2416 317.516 33.0875 317.672 32.911 317.801C32.7833 317.909 32.6257 317.976 32.459 317.993V317.993ZM44.587 312.329V314.473H41.947C40.9003 314.475 39.8611 314.296 38.875 313.945C37.8845 314.3 36.8393 314.479 35.787 314.473H33.147V312.329H36.247C35.719 311.826 35.2937 311.226 34.995 310.561C34.7051 309.914 34.5565 309.214 34.559 308.505C34.5503 308.314 34.5834 308.123 34.6559 307.947C34.7285 307.77 34.8387 307.611 34.979 307.481C35.3738 307.177 35.844 306.986 36.339 306.929C37.1781 306.802 38.0264 306.745 38.875 306.761C39.7262 306.745 40.5773 306.801 41.419 306.929C41.9064 306.987 42.3694 307.175 42.759 307.473C42.9 307.604 43.0106 307.764 43.0831 307.943C43.1557 308.121 43.1884 308.313 43.179 308.505C43.1826 309.213 43.0353 309.914 42.747 310.561C42.4487 311.221 42.031 311.821 41.515 312.329H44.587ZM36.459 308.905C36.4331 309.591 36.6419 310.266 37.051 310.817C37.5273 311.376 38.164 311.776 38.875 311.961C39.5803 311.773 40.2112 311.374 40.683 310.817C41.0921 310.266 41.3009 309.591 41.275 308.905H36.459ZM38.875 305.081C38.7015 305.068 38.5365 305.001 38.403 304.889C38.2279 304.762 38.0741 304.608 37.947 304.433C37.8354 304.299 37.7683 304.134 37.755 303.961C37.7898 303.68 37.9334 303.425 38.155 303.249C38.339 303.032 38.5942 302.887 38.875 302.841C39.1538 302.887 39.4066 303.032 39.587 303.249C39.805 303.427 39.9455 303.682 39.979 303.961C39.9626 304.131 39.8958 304.293 39.787 304.425C39.6616 304.604 39.5075 304.76 39.331 304.889C39.2023 304.998 39.0431 305.065 38.875 305.081V305.081ZM60.507 312.329V314.473H55.195C54.6648 314.481 54.1348 314.444 53.611 314.361C53.2507 314.307 52.9066 314.175 52.603 313.973C52.2667 314.175 51.8922 314.306 51.503 314.357C50.9189 314.442 50.3291 314.48 49.739 314.473H43.947V312.329H46.427V308.393H48.327V312.329H50.459C50.7784 312.352 51.0981 312.291 51.387 312.153C51.4903 312.077 51.5714 311.974 51.6221 311.856C51.6727 311.738 51.6909 311.608 51.675 311.481V308.393H53.575V311.481C53.5591 311.608 53.5773 311.738 53.6279 311.856C53.6786 311.974 53.7597 312.077 53.863 312.153C54.1519 312.291 54.4716 312.352 54.791 312.329H56.743C56.8743 311.682 56.9334 311.021 56.919 310.361C56.89 309.315 56.7451 308.275 56.487 307.261L58.379 306.973C58.5319 307.488 58.6416 308.015 58.707 308.549C58.7848 309.119 58.8248 309.694 58.827 310.269C58.8417 310.963 58.7719 311.656 58.619 312.333L60.507 312.329ZM51.387 305.081C51.2135 305.068 51.0485 305.001 50.915 304.889C50.7399 304.762 50.5861 304.608 50.459 304.433C50.3474 304.299 50.2803 304.134 50.267 303.961C50.3018 303.68 50.4454 303.425 50.667 303.249C50.851 303.032 51.1062 302.887 51.387 302.841C51.6658 302.887 51.9186 303.032 52.099 303.249C52.317 303.427 52.4575 303.682 52.491 303.961C52.4746 304.131 52.4078 304.293 52.299 304.425C52.1736 304.604 52.0195 304.76 51.843 304.889C51.7143 304.998 51.5551 305.065 51.387 305.081ZM54.059 305.081C53.8855 305.068 53.7205 305.001 53.587 304.889C53.4119 304.762 53.2581 304.608 53.131 304.433C53.0194 304.299 52.9523 304.134 52.939 303.961C52.9738 303.68 53.1174 303.425 53.339 303.249C53.523 303.032 53.7782 302.887 54.059 302.841C54.3378 302.887 54.5906 303.032 54.771 303.249C54.989 303.427 55.1295 303.682 55.163 303.961C55.1466 304.131 55.0798 304.293 54.971 304.425C54.8456 304.604 54.6915 304.76 54.515 304.889C54.3863 304.998 54.2271 305.065 54.059 305.081V305.081ZM52.715 302.249C52.5415 302.236 52.3765 302.169 52.243 302.057C52.0679 301.93 51.9141 301.776 51.787 301.601C51.6754 301.467 51.6083 301.302 51.595 301.129C51.6298 300.848 51.7734 300.593 51.995 300.417C52.179 300.2 52.4342 300.055 52.715 300.009C52.9938 300.055 53.2466 300.2 53.427 300.417C53.645 300.595 53.7855 300.85 53.819 301.129C53.8026 301.299 53.7358 301.461 53.627 301.593C53.5016 301.772 53.3475 301.928 53.171 302.057C53.0423 302.166 52.8831 302.233 52.715 302.249V302.249ZM59.883 312.329H62.359V306.953H64.259V314.473H59.883V312.329ZM61.995 305.081C61.8215 305.068 61.6565 305.001 61.523 304.889C61.3479 304.762 61.1941 304.608 61.067 304.433C60.9554 304.299 60.8883 304.134 60.875 303.961C60.9098 303.68 61.0534 303.425 61.275 303.249C61.459 303.032 61.7142 302.887 61.995 302.841C62.2738 302.887 62.5266 303.032 62.707 303.249C62.925 303.427 63.0655 303.682 63.099 303.961C63.0826 304.131 63.0158 304.293 62.907 304.425C62.7816 304.604 62.6275 304.76 62.451 304.889C62.3223 304.998 62.1631 305.065 61.995 305.081ZM64.667 305.081C64.4935 305.068 64.3285 305.001 64.195 304.889C64.0199 304.762 63.8661 304.608 63.739 304.433C63.6274 304.299 63.5603 304.134 63.547 303.961C63.5818 303.68 63.7254 303.425 63.947 303.249C64.131 303.032 64.3862 302.887 64.667 302.841C64.9458 302.887 65.1986 303.032 65.379 303.249C65.597 303.427 65.7375 303.682 65.771 303.961C65.7546 304.131 65.6878 304.293 65.579 304.425C65.4536 304.604 65.2995 304.76 65.123 304.889C64.9943 304.998 64.8351 305.065 64.667 305.081V305.081Z" fill="#3F0366"/>
</g>
</g>
</svg>
