<svg xmlns="http://www.w3.org/2000/svg" width="91.249" height="100" viewBox="0 0 91.249 100">
  <g id="eat" transform="translate(-22.405)">
    <g id="Group_3774" data-name="Group 3774" transform="translate(24.874 0)">
      <circle id="Ellipse_10" data-name="Ellipse 10" cx="44.39" cy="44.39" r="44.39" transform="translate(0 0)" fill="#eba40c"/>
      <path id="Path_491" data-name="Path 491" d="M171.079,91.6a44.391,44.391,0,0,1-77.313,29.775,44.39,44.39,0,0,0,62.689-62.709A44.281,44.281,0,0,1,171.079,91.6Z" transform="translate(-82.299 -47.208)" fill="#f3b328"/>
      <circle id="Ellipse_11" data-name="Ellipse 11" cx="30.945" cy="30.945" r="30.945" transform="translate(13.445 13.445)" fill="#fff"/>
      <path id="Path_492" data-name="Path 492" d="M196.878,130.884a30.945,30.945,0,0,1-54.345,20.249,30.945,30.945,0,0,0,43.649-43.65A30.869,30.869,0,0,1,196.878,130.884Z" transform="translate(-121.543 -86.494)" fill="#fff"/>
    </g>
    <g id="Group_3778" data-name="Group 3778" transform="translate(42.575 15.893)">
      <path id="Path_493" data-name="Path 493" d="M129.44,307.289l-.659-.087a3.56,3.56,0,0,1-3.063-4l6.02-45.574,7.718,1.019-6.02,45.574A3.56,3.56,0,0,1,129.44,307.289Z" transform="translate(-125.687 -223.214)" fill="#3f0366"/>
      <path id="Path_494" data-name="Path 494" d="M144.432,260.75l-6.007,45.472a3.663,3.663,0,0,1-4.112,3.151l-.454-.06a3.636,3.636,0,0,1-1.987-.924,3.658,3.658,0,0,0,2.735-3.071l5.955-45.078Z" transform="translate(-130.664 -225.311)" fill="#4f0b7b"/>
      <path id="Path_495" data-name="Path 495" d="M152.729,82.418l-7.756-1.025a1.042,1.042,0,0,0-1.17.9l-2.329,17.628a6.809,6.809,0,0,0,2.827,6.527,2.439,2.439,0,0,1,1.019,2.337l-.927,7.021,7.718,1.019.927-7.021a2.439,2.439,0,0,1,1.591-1.992,6.809,6.809,0,0,0,4.425-5.569l2.329-17.628a1.042,1.042,0,0,0-.9-1.17Z" transform="translate(-138.341 -81.384)" fill="#e2dee2"/>
      <path id="Path_496" data-name="Path 496" d="M189.487,91.489l-2.329,17.629a6.808,6.808,0,0,1-4.425,5.569,2.432,2.432,0,0,0-1.59,1.992l-.928,7.022-3.877-.512.987-7.661a2.432,2.432,0,0,1,1.59-1.992,6.811,6.811,0,0,0,4.425-5.569l2.329-17.629a1.024,1.024,0,0,0-.028-.408l2.95.39a1.042,1.042,0,0,1,.9,1.169Z" transform="translate(-166.446 -88.261)" fill="#cbc4cc"/>
      <g id="Group_3777" data-name="Group 3777" transform="translate(7.801 0.441)">
        <g id="Group_3775" data-name="Group 3775">
          <path id="Path_497" data-name="Path 497" d="M170.726,84.037l-2.092,15.836a1.507,1.507,0,0,1-1.491,1.31,1.66,1.66,0,0,1-.2-.012,1.51,1.51,0,0,1-1.3-1.692l2.092-15.836v0Z" transform="translate(-165.632 -83.641)" fill="#b5adb6"/>
        </g>
        <g id="Group_3776" data-name="Group 3776" transform="translate(5.973 0.79)">
          <path id="Path_498" data-name="Path 498" d="M201.31,88.082l-2.092,15.836a1.508,1.508,0,0,1-1.491,1.31,1.338,1.338,0,0,1-.2-.014,1.508,1.508,0,0,1-1.3-1.692l2.092-15.836Z" transform="translate(-196.216 -87.686)" fill="#b5adb6"/>
        </g>
      </g>
    </g>
    <g id="Group_3779" data-name="Group 3779" transform="translate(78.537 9.448)">
      <path id="Path_499" data-name="Path 499" d="M343.7,307.088l-.661.071A3.56,3.56,0,0,1,339.12,304l-4.891-45.709,7.74-.828,4.891,45.709A3.56,3.56,0,0,1,343.7,307.088Z" transform="translate(-329.466 -216.63)" fill="#3f0366"/>
      <path id="Path_500" data-name="Path 500" d="M359.528,307.1l-.454.048a3.657,3.657,0,0,1-2.166-.438,3.666,3.666,0,0,0,1.955-3.642l-4.835-45.193,3.875-.414,4.879,45.607A3.663,3.663,0,0,1,359.528,307.1Z" transform="translate(-345.398 -216.629)" fill="#4f0b7b"/>
      <path id="Path_501" data-name="Path 501" d="M322.341,89.211l-7.74.828-.6-5.6a3.634,3.634,0,0,0-1.26-2.382l-1.623-1.379a3.633,3.633,0,0,1-1.277-2.942l1.237-25.9a3.633,3.633,0,0,1,7.241-.213Z" transform="translate(-309.837 -48.38)" fill="#e2dee2"/>
      <path id="Path_502" data-name="Path 502" d="M333.068,89.215l-3.869.414-4.021-37.576a3.628,3.628,0,0,0-2.012-2.874,3.608,3.608,0,0,1,1.881-.774,3.638,3.638,0,0,1,4,3.225Z" transform="translate(-320.563 -48.384)" fill="#cbc4cc"/>
    </g>
    <g id="Group_3781" data-name="Group 3781" transform="translate(22.405 5.578)">
      <path id="Path_503" data-name="Path 503" d="M410.963,28.875c-.766,2.444-2.755,6.887-7.393,8.621a.444.444,0,0,0,0,.828c4.638,1.734,6.627,6.177,7.393,8.621a.444.444,0,0,0,.847,0c.766-2.444,2.755-6.887,7.393-8.621a.444.444,0,0,0,0-.828c-4.638-1.734-6.627-6.177-7.393-8.621A.444.444,0,0,0,410.963,28.875Z" transform="translate(-328.904 -28.565)" fill="#4f0b7b"/>
      <path id="Path_504" data-name="Path 504" d="M443.106,38.324c-4.638,1.734-6.627,6.176-7.392,8.621a.445.445,0,0,1-.848,0,16.66,16.66,0,0,0-1.876-4.038c.857-1.825.738-3.621,3.311-4.582a.444.444,0,0,0,0-.828c-2.573-.963-2.455-2.759-3.311-4.584a16.652,16.652,0,0,0,1.876-4.037.445.445,0,0,1,.848,0c.765,2.443,2.754,6.885,7.392,8.621A.444.444,0,0,1,443.106,38.324Z" transform="translate(-352.808 -28.565)" fill="#3f0366"/>
      <g id="Group_3780" data-name="Group 3780" transform="translate(0 71.398)">
        <path id="Path_505" data-name="Path 505" d="M28.5,394.413c-.608,1.94-2.186,5.465-5.867,6.842a.352.352,0,0,0,0,.657c3.681,1.376,5.259,4.9,5.867,6.842a.352.352,0,0,0,.672,0c.608-1.94,2.186-5.465,5.867-6.842a.352.352,0,0,0,0-.657c-3.681-1.376-5.259-4.9-5.867-6.842a.352.352,0,0,0-.672,0Z" transform="translate(-22.405 -394.167)" fill="#4f0b7b"/>
        <path id="Path_506" data-name="Path 506" d="M54.006,401.912c-3.681,1.376-5.259,4.9-5.866,6.841a.353.353,0,0,1-.673,0,13.218,13.218,0,0,0-1.488-3.2c.68-1.448.586-2.874,2.628-3.637a.352.352,0,0,0,0-.657c-2.042-.764-1.948-2.19-2.628-3.638a13.212,13.212,0,0,0,1.488-3.2.353.353,0,0,1,.673,0c.607,1.939,2.186,5.464,5.866,6.841A.353.353,0,0,1,54.006,401.912Z" transform="translate(-41.374 -394.167)" fill="#3f0366"/>
      </g>
    </g>
  </g>
</svg>
