<svg xmlns="http://www.w3.org/2000/svg" width="87.483" height="100" viewBox="0 0 87.483 100">
  <g id="food-tray" transform="translate(-32.045)">
    <g id="Group_3749" data-name="Group 3749" transform="translate(32.045)">
      <path id="Path_454" data-name="Path 454" d="M235.171,250.652s5.361-10.044,4.626-11.422a.006.006,0,0,0,0,0,9.894,9.894,0,0,0-6.528,4.812L229.8,250.2l-7.8,8.1a132.3,132.3,0,0,0,13.173-7.651Z" transform="translate(-184.896 -192.501)" fill="#e2ae84"/>
      <path id="Path_455" data-name="Path 455" d="M234.6,238.077a9.891,9.891,0,0,0-2.091.227,1.609,1.609,0,0,1-.218.463l-.514.75c-.107.145-.21.294-.307.448l-5.176,8.173s-6.367,6.833-11.585,9.24l-1.768,1.836a5.4,5.4,0,0,0,.953.547c4.883,2.151,17.025-6.591,17.025-6.591l4.178-11.391c.1-.154.2-.3.307-.448l.514-.75A1.6,1.6,0,0,0,234.6,238.077Z" transform="translate(-177.611 -191.574)" fill="#d7a379"/>
      <path id="Path_456" data-name="Path 456" d="M121.64,280.748h4.014c4.461-3.013,16.707-12.56,20.073-16.761l7.055-9.407a51.308,51.308,0,0,0,5.262-7.959l2.867-6.283c.321-.611-.521-1.741-1.3-2.175a7.96,7.96,0,0,0-5.574,3.615l-5.176,8.173s-11.144,11.961-16.027,9.809a5.685,5.685,0,0,1-2.052-1.564c-.89-.575-1.154-.725-1.576-1.021-3.953-2.776-3.169-9.156-3.7-15.451-.118-1.4-1.445-2.726-3.381-3.605a5.994,5.994,0,0,0-.7-.042,1.939,1.939,0,0,0-1.933,1.784l-.668,8.3a26.344,26.344,0,0,1-3.583,11.16,25.617,25.617,0,0,0-3.029,11.989l1.5,8.035Z" transform="translate(-96.546 -191.564)" fill="#f0c69e"/>
      <g id="Group_3748" data-name="Group 3748" transform="translate(24.675 46.512)">
        <path id="Path_457" data-name="Path 457" d="M164.605,241.9c.532,6.3.81,14.173,5.458,16.222a3.4,3.4,0,0,0,1.576.251c-2.7-3.182-2.967-9.459-3.406-14.658a5.968,5.968,0,0,0-5.251-5.419A5.937,5.937,0,0,1,164.605,241.9Z" transform="translate(-162.078 -238.252)" fill="#e6ba94"/>
        <path id="Path_458" data-name="Path 458" d="M197.9,238.077a7.935,7.935,0,0,0-1.151.087,2.527,2.527,0,0,1-.208,1.855l-3.167,6.028a48.425,48.425,0,0,1-5.077,7.755l-7.213,9a53.488,53.488,0,0,1-11.808,10.882l-10.5,7.062-.422,2.886,2.965-.341L172.9,275.5a53.494,53.494,0,0,0,11.808-10.882l7.213-9A48.426,48.426,0,0,0,197,247.861l3.167-6.028A2.563,2.563,0,0,0,197.9,238.077Z" transform="translate(-158.353 -238.077)" fill="#e6ba94"/>
      </g>
      <path id="Path_459" data-name="Path 459" d="M243.687,4.312V3.945a3.945,3.945,0,0,0-7.89,0v.367l3.945,1.5Z" transform="translate(-196.001)" fill="#f3b328"/>
      <path id="Path_460" data-name="Path 460" d="M235.8,21.256v3.628l3.945,1.556,3.945-1.557V21.256a38.867,38.867,0,0,0-7.89,0Z" transform="translate(-196.001 -16.944)" fill="#eba40c"/>
      <path id="Path_461" data-name="Path 461" d="M139.713,67.735a38.771,38.771,0,0,0-74.548,0l37.274,1.757Z" transform="translate(-58.698 -31.896)" fill="#eba40c"/>
      <path id="Path_462" data-name="Path 462" d="M61.665,183.544q-.508,1.781-.85,3.628h76.247q-.338-1.846-.85-3.628Z" transform="translate(-55.197 -147.695)" fill="#f3b328"/>
      <path id="Path_463" data-name="Path 463" d="M34.653,203.821a3.558,3.558,0,0,0,3,3.453h80.461a3.457,3.457,0,0,0,3-3.453,3.505,3.505,0,0,0-3-1.7H37.655A3.5,3.5,0,0,0,34.653,203.821Z" transform="translate(-34.144 -162.647)" fill="#4f0b7b"/>
      <path id="Path_464" data-name="Path 464" d="M82.591,420.322l4.97-1.455,1.831-5.345L76.98,401.11a1.569,1.569,0,0,0-2.219,0l-4.582,4.582a1.569,1.569,0,0,0,0,2.219Z" transform="translate(-62.363 -322.393)" fill="#eba40c"/>
      <path id="Path_465" data-name="Path 465" d="M142.437,466.565l-6.8,6.8,1.612,1.612a1.569,1.569,0,0,0,2.219,0l4.582-4.582a1.569,1.569,0,0,0,0-2.219Z" transform="translate(-115.403 -375.437)" fill="#f3b328"/>
      <path id="Path_466" data-name="Path 466" d="M116.016,212.507H35.556a3.506,3.506,0,0,1-3-1.7,3.5,3.5,0,0,0,3,5.324h80.46a3.5,3.5,0,0,0,3-5.324A3.506,3.506,0,0,1,116.016,212.507Z" transform="translate(-32.045 -169.636)" fill="#3f0366"/>
    </g>
    <g id="Group_3750" data-name="Group 3750" transform="translate(43.712 82.695)">
      <path id="Path_467" data-name="Path 467" d="M94.38,423.823a1.515,1.515,0,0,0-2.142,2.142l1.46,1.46a1.515,1.515,0,0,0,2.142-2.142Z" transform="translate(-91.794 -423.379)" fill="#3f0366"/>
    </g>
  </g>
</svg>
