<svg xmlns="http://www.w3.org/2000/svg" width="137.405" height="100" viewBox="0 0 137.405 100">
  <g id="restaurant" transform="translate(0 -67.403)">
    <path id="Path_468" data-name="Path 468" d="M239.638,129.971h-9.19V112.908a5.6,5.6,0,0,1,1.606-3.927l2.989-3.043,2.989,3.043a5.6,5.6,0,0,1,1.606,3.927Z" transform="translate(-166.505 -27.843)" fill="#fff"/>
    <g id="Group_3754" data-name="Group 3754" transform="translate(61.862 76.014)">
      <path id="Path_469" data-name="Path 469" d="M234.218,126.632h-9.19a2.081,2.081,0,0,1-2.081-2.081V107.488a7.641,7.641,0,0,1,2.2-5.385l2.989-3.043a2.082,2.082,0,0,1,2.97,0L234.1,102.1a7.642,7.642,0,0,1,2.2,5.385v17.063A2.081,2.081,0,0,1,234.218,126.632Zm-7.109-4.162h5.028V107.488a3.5,3.5,0,0,0-1.009-2.468l-1.5-1.532-1.5,1.532a3.5,3.5,0,0,0-1.009,2.468Z" transform="translate(-222.947 -98.437)" fill="#f0c69e"/>
    </g>
    <g id="Group_3755" data-name="Group 3755" transform="translate(42.43 81.306)">
      <path id="Path_470" data-name="Path 470" d="M157.1,125.869a4.18,4.18,0,0,1-4.18-4.18v-3.061a1.12,1.12,0,0,1,1.12-1.12h6.121a1.12,1.12,0,0,1,1.12,1.12v3.061A4.18,4.18,0,0,1,157.1,125.869Z" transform="translate(-152.917 -117.509)" fill="#fff"/>
    </g>
    <g id="Group_3756" data-name="Group 3756" transform="translate(86.279 81.306)">
      <path id="Path_471" data-name="Path 471" d="M315.125,125.869a4.18,4.18,0,0,1-4.18-4.18v-3.061a1.12,1.12,0,0,1,1.12-1.12h6.121a1.12,1.12,0,0,1,1.12,1.12v3.061A4.18,4.18,0,0,1,315.125,125.869Z" transform="translate(-310.945 -117.509)" fill="#fff"/>
    </g>
    <g id="Group_3759" data-name="Group 3759" transform="translate(40.349 79.225)">
      <g id="Group_3757" data-name="Group 3757" transform="translate(0 0)">
        <path id="Path_472" data-name="Path 472" d="M151.678,122.532a6.268,6.268,0,0,1-6.261-6.261v-3.061a3.2,3.2,0,0,1,3.2-3.2h6.121a3.2,3.2,0,0,1,3.2,3.2v3.061A6.268,6.268,0,0,1,151.678,122.532Zm-2.1-8.36v2.1a2.1,2.1,0,0,0,4.2,0v-2.1Z" transform="translate(-145.417 -110.01)" fill="#eba40c"/>
      </g>
      <g id="Group_3758" data-name="Group 3758" transform="translate(4.18 8.36)">
        <path id="Path_473" data-name="Path 473" d="M162.563,154.587a2.081,2.081,0,0,1-2.081-2.081V142.22a2.081,2.081,0,0,1,4.162,0v10.285A2.081,2.081,0,0,1,162.563,154.587Z" transform="translate(-160.482 -140.139)" fill="#eba40c"/>
      </g>
    </g>
    <g id="Group_3762" data-name="Group 3762" transform="translate(84.198 79.225)">
      <g id="Group_3760" data-name="Group 3760" transform="translate(0 0)">
        <path id="Path_474" data-name="Path 474" d="M309.707,122.532a6.268,6.268,0,0,1-6.261-6.261v-3.061a3.2,3.2,0,0,1,3.2-3.2h6.121a3.2,3.2,0,0,1,3.2,3.2v3.061A6.268,6.268,0,0,1,309.707,122.532Zm-2.1-8.36v2.1a2.1,2.1,0,0,0,4.2,0v-2.1Z" transform="translate(-303.446 -110.01)" fill="#eba40c"/>
      </g>
      <g id="Group_3761" data-name="Group 3761" transform="translate(4.18 8.36)">
        <path id="Path_475" data-name="Path 475" d="M320.591,154.587a2.081,2.081,0,0,1-2.081-2.081V142.22a2.081,2.081,0,1,1,4.162,0v10.285A2.081,2.081,0,0,1,320.591,154.587Z" transform="translate(-318.51 -140.139)" fill="#eba40c"/>
      </g>
    </g>
    <g id="Group_3763" data-name="Group 3763" transform="translate(66.51 118.923)">
      <path id="Path_476" data-name="Path 476" d="M241.781,292.7a2.081,2.081,0,0,1-2.081-2.081V255.158a2.081,2.081,0,0,1,4.162,0v35.459A2.081,2.081,0,0,1,241.781,292.7Z" transform="translate(-239.7 -253.077)" fill="#f0c69e"/>
    </g>
    <path id="Path_477" data-name="Path 477" d="M171.3,184.708H108.921a10.42,10.42,0,0,0-9.72,6.665,3.219,3.219,0,0,0,3,4.38h75.808a3.219,3.219,0,0,0,3-4.38A10.419,10.419,0,0,0,171.3,184.708Z" transform="translate(-71.517 -84.756)" fill="#3f0366"/>
    <path id="Path_478" data-name="Path 478" d="M351.814,191.373a10.419,10.419,0,0,0-9.72-6.665h-6.722a10.42,10.42,0,0,1,9.72,6.665,3.219,3.219,0,0,1-3,4.38h6.722A3.219,3.219,0,0,0,351.814,191.373Z" transform="translate(-242.316 -84.756)" fill="#4f0b7b"/>
    <g id="Group_3765" data-name="Group 3765" transform="translate(0 84.795)">
      <g id="Group_3764" data-name="Group 3764" transform="translate(0 0)">
        <path id="Path_479" data-name="Path 479" d="M32.866,181.227H24.841l-4.269.5-4.5-.5H10.432A10.445,10.445,0,0,1,0,170.795V134.4a4.317,4.317,0,1,1,8.634,0v36.395a1.8,1.8,0,0,0,1.8,1.8H32.866a4.317,4.317,0,0,1,0,8.634Z" transform="translate(0 -130.083)" fill="#eba40c"/>
      </g>
    </g>
    <g id="Group_3766" data-name="Group 3766" transform="translate(2.213 84.795)">
      <path id="Path_480" data-name="Path 480" d="M10.19,134.4v36.395a1.8,1.8,0,0,0,1.8,1.8H16.2a1.8,1.8,0,0,1-1.8-1.8V134.4a4.314,4.314,0,0,0-6.421-3.768A4.313,4.313,0,0,1,10.19,134.4Z" transform="translate(-7.977 -130.083)" fill="#f3b328"/>
      <path id="Path_481" data-name="Path 481" d="M107.491,283.286h-4.208a4.317,4.317,0,1,1,0,8.634h4.208a4.317,4.317,0,0,0,0-8.634Z" transform="translate(-76.838 -240.776)" fill="#eba40c"/>
    </g>
    <g id="Group_3768" data-name="Group 3768" transform="translate(100.222 84.795)">
      <g id="Group_3767" data-name="Group 3767" transform="translate(0 0)">
        <path id="Path_482" data-name="Path 482" d="M365.512,181.227h8.4l4.559.573,3.912-.573h5.568a10.444,10.444,0,0,0,10.432-10.432V134.4a4.317,4.317,0,1,0-8.634,0v36.395a1.8,1.8,0,0,1-1.8,1.8H365.512a4.317,4.317,0,0,0,0,8.634Z" transform="translate(-361.195 -130.083)" fill="#eba40c"/>
      </g>
    </g>
    <path id="Path_483" data-name="Path 483" d="M452.762,130.082a4.293,4.293,0,0,0-2.1.549,4.314,4.314,0,0,1,2.213,3.768v36.395a10.444,10.444,0,0,1-10.432,10.432h4.208a10.444,10.444,0,0,0,10.432-10.432V134.4A4.317,4.317,0,0,0,452.762,130.082Z" transform="translate(-319.674 -45.287)" fill="#f3b328"/>
    <path id="Path_484" data-name="Path 484" d="M228.466,235.4H218.217a4.038,4.038,0,0,1-4.038-4.038v-6.85H232.5v6.85A4.038,4.038,0,0,1,228.466,235.4Z" transform="translate(-154.75 -113.514)" fill="#f0c69e"/>
    <path id="Path_485" data-name="Path 485" d="M245.481,224.511v6.85a4.038,4.038,0,0,1-4.038,4.038h6.722a4.038,4.038,0,0,0,4.038-4.038v-6.85Z" transform="translate(-174.449 -113.515)" fill="#f0c69e"/>
    <path id="Path_486" data-name="Path 486" d="M218.425,375.37l10.605,8.494a1.026,1.026,0,0,1-.57,1.879l-20.031.011a1.026,1.026,0,0,1-.572-1.878Z" transform="translate(-149.852 -222.514)" fill="#f0c69e"/>
    <path id="Path_487" data-name="Path 487" d="M249.007,383.865,238.4,375.371l-3.353,2.7,7.236,5.8a1.026,1.026,0,0,1-.57,1.879h6.722A1.026,1.026,0,0,0,249.007,383.865Z" transform="translate(-169.829 -222.515)" fill="#f0c69e"/>
    <g id="Group_3770" data-name="Group 3770" transform="translate(1.049 135.939)">
      <g id="Group_3769" data-name="Group 3769">
        <path id="Path_488" data-name="Path 488" d="M41.161,345.866a2.082,2.082,0,0,1-1.951-1.359L30.4,320.737a3.344,3.344,0,0,0-3.123-2.173H18.805a3.325,3.325,0,0,0-3.162,2.284l-7.806,23.59a2.081,2.081,0,1,1-3.951-1.308l7.806-23.589a7.481,7.481,0,0,1,7.113-5.139h8.47a7.523,7.523,0,0,1,7.026,4.889l8.811,23.77a2.083,2.083,0,0,1-1.951,2.805Z" transform="translate(-3.78 -314.402)" fill="#3f0366"/>
      </g>
    </g>
    <g id="Group_3772" data-name="Group 3772" transform="translate(96.968 135.939)">
      <g id="Group_3771" data-name="Group 3771">
        <path id="Path_489" data-name="Path 489" d="M351.548,345.867a2.083,2.083,0,0,1-1.951-2.8l8.811-23.77a7.524,7.524,0,0,1,7.026-4.889h8.47a7.48,7.48,0,0,1,7.113,5.139l7.806,23.589a2.081,2.081,0,0,1-3.951,1.308l-7.806-23.589a3.325,3.325,0,0,0-3.162-2.284h-8.47a3.345,3.345,0,0,0-3.123,2.173l-8.811,23.77A2.082,2.082,0,0,1,351.548,345.867Z" transform="translate(-349.467 -314.403)" fill="#3f0366"/>
      </g>
    </g>
    <g id="Group_3773" data-name="Group 3773" transform="translate(66.457 67.403)">
      <path id="Path_490" data-name="Path 490" d="M241.589,80.176a2.081,2.081,0,0,1-2.081-2.081V69.484a2.081,2.081,0,0,1,4.162,0V78.1A2.081,2.081,0,0,1,241.589,80.176Z" transform="translate(-239.508 -67.403)" fill="#f0c69e"/>
    </g>
  </g>
</svg>
